<svg xmlns="http://www.w3.org/2000/svg" width="1200" height="900" viewBox="0 0 1200 900" role="img" aria-labelledby="title desc">
  <title id="title">Workplace illustration placeholder</title>
  <desc id="desc">A simple abstract illustration used as a temporary login background.</desc>
  <defs>
    <linearGradient id="g1" x1="0" x2="1" y1="0" y2="1">
      <stop offset="0%" stop-color="#0fa17b" stop-opacity="0.35"/>
      <stop offset="100%" stop-color="#0fa17b" stop-opacity="0.85"/>
    </linearGradient>
    <linearGradient id="g2" x1="0" x2="1" y1="1" y2="0">
      <stop offset="0%" stop-color="#0d8767" stop-opacity="0.7"/>
      <stop offset="100%" stop-color="#0fa17b" stop-opacity="0.4"/>
    </linearGradient>
  </defs>
  <rect width="1200" height="900" fill="url(#g1)"/>
  <circle cx="240" cy="220" r="120" fill="#0fa17b" fill-opacity="0.3"/>
  <circle cx="1020" cy="160" r="140" fill="#0fa17b" fill-opacity="0.28"/>
  <path d="M0,520 C260,480 320,400 560,440 C760,476 900,620 1200,560 L1200,900 L0,900 Z" fill="url(#g2)"/>
  <rect x="180" y="360" width="160" height="220" rx="20" fill="#0fa17b" fill-opacity="0.22"/>
  <rect x="520" y="340" width="220" height="260" rx="26" fill="#0fa17b" fill-opacity="0.32"/>
  <rect x="840" y="380" width="180" height="200" rx="24" fill="#0fa17b" fill-opacity="0.25"/>
  <rect x="260" y="420" width="120" height="16" rx="8" fill="#0d8767" opacity="0.35"/>
  <rect x="560" y="430" width="160" height="16" rx="8" fill="#0d8767" opacity="0.4"/>
  <rect x="880" y="450" width="140" height="16" rx="8" fill="#0d8767" opacity="0.32"/>
  <rect x="560" y="470" width="180" height="16" rx="8" fill="#0d8767" opacity="0.28"/>
  <rect x="560" y="510" width="140" height="16" rx="8" fill="#0d8767" opacity="0.24"/>
  <rect x="260" y="460" width="90" height="16" rx="8" fill="#0d8767" opacity="0.3"/>
  <rect x="880" y="490" width="100" height="16" rx="8" fill="#0d8767" opacity="0.26"/>
  <circle cx="560" cy="640" r="14" fill="#0fa17b" opacity="0.4"/>
  <circle cx="600" cy="660" r="10" fill="#0fa17b" opacity="0.35"/>
  <circle cx="640" cy="645" r="12" fill="#0fa17b" opacity="0.3"/>
  <circle cx="102" cy="760" r="36" fill="#0fa17b" opacity="0.25"/>
  <circle cx="1100" cy="760" r="46" fill="#0fa17b" opacity="0.28"/>
</svg>
